<svg width="22" height="24" viewBox="0 0 22 24" fill="none" xmlns="http://www.w3.org/2000/svg">
<path d="M7.51998 13.4336C8.06184 13.4336 8.56482 13.4281 9.067 13.44C9.13365 13.4416 9.22171 13.5146 9.26137 13.5788C9.52794 14.0056 9.91826 14.1945 10.4086 14.1889C10.7735 14.1849 11.1456 14.204 11.5018 14.1405C12.1277 14.0295 12.5665 13.4241 12.5085 12.8267C12.4435 12.1484 11.9191 11.6558 11.2479 11.647C10.9409 11.6431 10.6347 11.647 10.3276 11.6462C9.83655 11.6447 9.4843 11.8723 9.2344 12.2873C9.1868 12.3666 9.0908 12.4689 9.01464 12.4705C8.45137 12.4864 7.88651 12.4793 7.32244 12.4793C7.22485 12.4793 7.12648 12.4793 7.02176 12.4793C6.71949 11.4233 6.53861 10.365 6.468 9.29C6.43072 8.718 6.42913 8.14282 6.43548 7.57003C6.43706 7.41294 6.49656 7.23762 6.58145 7.10275C7.18995 6.13487 8.04914 5.49226 9.14078 5.15112C9.45654 5.05274 9.70644 5.10272 9.95634 5.32486C11.4217 6.62674 13.1369 7.40105 15.0687 7.7049C15.175 7.72156 15.2837 7.7287 15.4328 7.74456C15.4328 7.96115 15.4336 8.17456 15.4328 8.38797C15.4273 9.7073 15.3622 11.0258 14.8933 12.273C14.6807 12.8386 14.3999 13.4035 14.0373 13.8835C13.1392 15.0735 11.8564 15.3805 10.4403 15.2464C9.32405 15.1409 8.40853 14.6379 7.70959 13.7549C7.6604 13.6931 7.61597 13.6272 7.57234 13.5622C7.55727 13.5392 7.55092 13.5106 7.52077 13.4344L7.51998 13.4336Z" fill="#612BC1"/>
<path d="M10.0866 23.6923H0.511719C0.691015 22.6855 1.00994 21.747 1.49388 20.868C2.53237 18.9846 4.10319 17.8675 6.25316 17.5994C6.42294 17.578 6.5586 17.5605 6.66094 17.7684C7.64628 19.7629 8.76569 21.6804 9.99934 23.532C10.0255 23.5717 10.0454 23.6161 10.0858 23.6915L10.0866 23.6923Z" fill="#612BC1"/>
<path d="M21.4764 23.6957H11.8643C11.9317 23.5838 11.9817 23.4934 12.0388 23.4077C13.2264 21.6187 14.3093 19.7686 15.2558 17.84C15.3693 17.6091 15.5017 17.5671 15.7405 17.6004C18.545 17.9844 20.165 19.7202 21.0702 22.2661C21.2313 22.7191 21.3352 23.1919 21.4764 23.6957ZM20.2245 21.8765C20.2071 21.8559 20.1896 21.8353 20.1714 21.8146C20.1627 21.7766 20.1555 21.7377 20.1436 21.7004C19.9088 20.9388 19.4629 20.3247 18.8219 19.8582C18.6148 19.7075 18.338 19.7678 18.1864 19.9614C18.0373 20.1518 18.0579 20.4215 18.2428 20.6048C18.3832 20.7436 18.5609 20.8539 18.6688 21.0134C18.8774 21.3204 19.0615 21.6464 19.2321 21.9773C19.3606 22.2256 19.5573 22.3565 19.8049 22.2613C19.9699 22.1978 20.0865 22.009 20.2245 21.8765ZM17.2733 18.8507C17.0242 18.8539 16.8044 19.0776 16.8052 19.3283C16.8052 19.5877 17.0139 19.7924 17.2765 19.7908C17.5359 19.7892 17.7445 19.5806 17.7445 19.3219C17.7445 19.0712 17.5216 18.8475 17.2733 18.8507Z" fill="#612BC1"/>
<path d="M15.3694 6.77076C13.5344 6.51054 11.9897 5.84571 10.6886 4.68029C10.0603 4.11781 9.40896 4.00833 8.64021 4.29076C7.88812 4.56684 7.21536 4.9651 6.56641 5.58232C6.60369 5.33321 6.61718 5.16582 6.65447 5.00318C7.07811 3.16183 8.74811 1.81631 10.6371 1.85201C11.3027 1.86471 11.9921 1.92421 12.6244 2.11382C14.081 2.55254 14.8243 3.67512 15.1972 5.0841C15.2702 5.36019 15.3345 5.64262 15.3646 5.92584C15.3932 6.19003 15.371 6.45976 15.371 6.76996L15.3694 6.77076Z" fill="#612BC1"/>
<path d="M17.543 6.19608H16.4062C16.2158 5.44954 16.0865 4.7149 15.8405 4.0231C15.1749 2.1516 13.7628 1.20831 11.8397 0.959201C10.8266 0.828299 9.8222 0.867967 8.85194 1.21069C7.15339 1.81126 6.22042 3.09409 5.76107 4.77202C5.63651 5.2274 5.57146 5.69865 5.47308 6.19052H4.17676C4.30607 3.33844 6.40844 0.270578 10.3998 0.0159144C14.2507 -0.230023 17.2709 2.39912 17.543 6.19608Z" fill="#612BC1"/>
<path d="M10.9797 23.283C10.3974 22.3635 9.84521 21.4979 9.30335 20.626C9.26686 20.5665 9.27717 20.4269 9.32239 20.3746C9.86107 19.7581 10.4109 19.1512 10.9797 18.5173C11.5541 19.1568 12.115 19.778 12.6679 20.4063C12.7028 20.4468 12.6997 20.5626 12.6679 20.6141C12.1197 21.4908 11.5636 22.3635 10.9797 23.283Z" fill="#612BC1"/>
<path d="M10.2807 17.8541C9.78244 18.4103 9.26518 18.9886 8.7154 19.6027C8.52737 19.2504 8.3568 18.9339 8.18861 18.6165C7.94902 18.1627 7.70547 17.7113 7.47698 17.252C7.43494 17.1679 7.41272 17.0322 7.45239 16.9569C7.67453 16.5308 7.91808 16.1151 8.15053 15.7034C8.86216 16.4213 9.5611 17.1274 10.2807 17.8541Z" fill="#612BC1"/>
<path d="M11.668 17.8437C12.3963 17.117 13.0944 16.4196 13.81 15.7048C14.0432 16.1182 14.2876 16.541 14.5177 16.971C14.551 17.0329 14.5367 17.1463 14.5018 17.2146C14.0996 17.9944 13.6886 18.7703 13.2507 19.6033C12.708 19.0004 12.186 18.4197 11.6688 17.8445L11.668 17.8437Z" fill="#612BC1"/>
<path d="M5.46843 9.75849C5.10587 9.75849 4.72269 9.77753 4.34347 9.74421C4.25303 9.73628 4.11022 9.55619 4.10705 9.45147C4.08642 8.71207 4.09594 7.97267 4.09594 7.2063H5.46764V9.7577L5.46843 9.75849Z" fill="#612BC1"/>
<path d="M16.3711 9.75947V7.20728H17.6008C17.6008 7.98079 17.6079 8.74874 17.5905 9.5167C17.5889 9.59921 17.4445 9.74122 17.3572 9.74916C17.0264 9.77692 16.6916 9.75947 16.3711 9.75947Z" fill="#612BC1"/>
<path d="M10.7759 12.5831C10.952 12.595 11.1408 12.5712 11.2995 12.6299C11.4098 12.6704 11.5359 12.818 11.547 12.929C11.5557 13.0099 11.3955 13.1781 11.2987 13.1877C10.9591 13.2218 10.6132 13.2234 10.2737 13.1916C10.1856 13.1837 10.0389 12.998 10.0516 12.9132C10.0682 12.7997 10.1951 12.6569 10.3078 12.6149C10.4458 12.5633 10.6172 12.6022 10.7751 12.6022C10.7751 12.595 10.7751 12.5887 10.7759 12.5815V12.5831Z" fill="#612BC1"/>
<path d="M11.8597 16.1965C11.5678 16.4909 11.2766 16.7836 10.9974 17.066C10.7134 16.7765 10.427 16.4845 10.1445 16.1965H11.8597Z" fill="#612BC1"/>
<path d="M5.27486 10.7463H5.59617C5.72628 11.3112 5.85639 11.8729 5.9857 12.4354C5.56761 12.5425 5.28518 12.3433 5.27645 11.9229C5.26852 11.5397 5.27486 11.1557 5.27486 10.7463Z" fill="#612BC1"/>
</svg>
