<svg width="25" height="25" viewBox="0 0 25 25" fill="none" xmlns="http://www.w3.org/2000/svg">
<g clip-path="url(#clip0_119_9)">
<path fill-rule="evenodd" clip-rule="evenodd" d="M11.178 2.33325C9.82258 2.33337 8.48685 2.65762 7.28224 3.27895C6.07764 3.90028 5.03908 4.80067 4.25322 5.90501C3.46737 7.00934 2.957 8.2856 2.7647 9.6273C2.57239 10.969 2.70374 12.3372 3.14777 13.6178C3.5918 14.8984 4.33563 16.0543 5.31722 16.989C6.29882 17.9236 7.48969 18.61 8.7905 18.9909C10.0913 19.3717 11.4643 19.4359 12.795 19.1782C14.1257 18.9204 15.3754 18.3482 16.44 17.5093L20.092 21.1613C20.2806 21.3434 20.5332 21.4442 20.7954 21.4419C21.0576 21.4396 21.3084 21.3345 21.4938 21.1491C21.6792 20.9637 21.7844 20.7128 21.7867 20.4507C21.7889 20.1885 21.6881 19.9359 21.506 19.7473L17.854 16.0953C18.842 14.8419 19.4572 13.3357 19.6291 11.749C19.801 10.1623 19.5228 8.55927 18.8262 7.12335C18.1296 5.68742 17.0429 4.47661 15.6903 3.62948C14.3377 2.78236 12.774 2.33314 11.178 2.33325ZM4.67799 10.8333C4.67799 9.10934 5.36281 7.45604 6.58179 6.23706C7.80078 5.01807 9.45408 4.33325 11.178 4.33325C12.9019 4.33325 14.5552 5.01807 15.7742 6.23706C16.9932 7.45604 17.678 9.10934 17.678 10.8333C17.678 12.5572 16.9932 14.2105 15.7742 15.4294C14.5552 16.6484 12.9019 17.3333 11.178 17.3333C9.45408 17.3333 7.80078 16.6484 6.58179 15.4294C5.36281 14.2105 4.67799 12.5572 4.67799 10.8333Z" fill="#612BC1"/>
</g>
<defs>
<clipPath id="clip0_119_9">
<rect width="24" height="24" fill="white" transform="translate(0.677734 0.333252)"/>
</clipPath>
</defs>
</svg>
