<svg width="23" height="23" viewBox="0 0 23 23" fill="none" xmlns="http://www.w3.org/2000/svg">
<path d="M22.6609 10.8238C19.1697 7.3392 15.6835 3.85054 12.1953 0.362882C11.7099 -0.122462 11.2907 -0.120456 10.8043 0.36589C7.32309 3.84753 3.84092 7.32917 0.359757 10.8108C0.299581 10.871 0.235393 10.9291 0.183241 10.9963C-0.0233625 11.2651 -0.0554544 11.5639 0.0879644 11.8637C0.231383 12.1636 0.481112 12.323 0.824113 12.331C1.12599 12.338 1.3336 12.1776 1.53318 11.978C1.85312 11.6582 2.17305 11.3373 2.49298 11.0174C2.48095 11.1287 2.47493 11.242 2.47493 11.3563V13.9846C2.47293 15.6342 2.47393 17.2847 2.47493 18.9343C2.47493 21.1645 4.30528 22.9975 6.53378 22.9996C8.1836 23.0006 9.83342 22.9996 11.4832 22.9996V22.9975C12.4501 22.9975 13.4169 22.9975 14.3837 22.9975H15.6955C15.7176 22.9975 15.7387 22.9965 15.7597 22.9955C15.9583 22.9955 16.1569 22.9955 16.3555 22.9955C16.6102 22.9955 16.868 22.9785 17.1207 22.9434C18.9952 22.6777 20.5246 20.9178 20.5286 19.0235C20.5317 17.365 20.5297 15.7064 20.5286 14.0478C20.5286 14.0036 20.5266 13.9585 20.5236 13.9134V11.0284C20.5938 11.0986 20.663 11.1688 20.7332 11.238C21.0231 11.5278 21.3049 11.8266 21.6058 12.1064C22.0641 12.5316 22.7973 12.335 22.9658 11.7424C23.0701 11.3754 22.9266 11.0866 22.6629 10.8238H22.6609Z" fill="#612BC1"/>
</svg>
