<svg width="30" height="26" viewBox="0 0 30 26" fill="none" xmlns="http://www.w3.org/2000/svg">
<path d="M0.313477 23.4589C0.313477 20.3691 0.313477 17.2793 0.313477 14.1894C0.684226 13.761 0.943444 13.6848 1.30804 13.9402C1.81494 14.2948 2.36722 14.4348 2.98411 14.4325C6.06394 14.421 9.14378 14.4271 12.2236 14.4271H12.5859C12.5921 14.5594 12.6005 14.6617 12.6013 14.764C12.6028 15.244 12.5951 15.724 12.6044 16.2032C12.6136 16.6639 12.8451 16.8924 13.3036 16.8939C14.4743 16.8985 15.645 16.8985 16.8149 16.8939C17.2564 16.8916 17.4903 16.6631 17.501 16.2201C17.5133 15.7309 17.5033 15.2417 17.5057 14.7525C17.5057 14.6517 17.518 14.5502 17.5257 14.4279H17.8956C20.9847 14.4279 24.0745 14.4225 27.1636 14.4325C27.7613 14.4348 28.2997 14.2963 28.7828 13.9471C29.0043 13.7871 29.2358 13.7479 29.4812 13.8887C29.7127 14.0217 29.7942 14.2287 29.7935 14.491C29.7904 17.35 29.7912 20.2091 29.7912 23.0682C29.7912 23.5836 29.6343 24.0497 29.3335 24.4643C28.7866 25.2189 28.0274 25.5027 27.1144 25.5019C19.074 25.4958 11.0337 25.4981 2.99411 25.4973C2.86027 25.4973 2.72566 25.4919 2.59182 25.4819C1.56495 25.4073 0.724224 24.735 0.418087 23.7489C0.387319 23.6505 0.34809 23.5551 0.313477 23.4589Z" fill="#612BC1"/>
<path d="M0.313477 11.1372C0.313477 9.64036 0.313477 8.14352 0.313477 6.6459C0.326553 6.63206 0.345782 6.62052 0.351167 6.60437C0.768837 5.21444 1.57956 4.60678 3.0218 4.60678C4.86401 4.60678 6.70545 4.60678 8.54766 4.60678C8.65842 4.60678 8.76996 4.60678 8.90149 4.60678C8.90149 4.20911 8.89072 3.85451 8.90533 3.50145C8.9161 3.25454 8.93456 3.00148 8.9961 2.7638C9.29608 1.61463 10.246 0.925434 11.5252 0.923126C13.8758 0.919281 16.2257 0.920818 18.5764 0.924664C18.8048 0.924664 19.0402 0.934663 19.2617 0.984661C20.4086 1.24465 21.1793 2.20075 21.2039 3.38069C21.2124 3.7799 21.2055 4.17988 21.2055 4.60678C21.3662 4.60678 21.4885 4.60678 21.6116 4.60678C23.5592 4.61063 25.5068 4.57986 27.4528 4.62909C28.8243 4.6637 29.7889 5.74134 29.7912 7.11511C29.7935 8.29505 29.7927 9.47499 29.7912 10.6549C29.7896 12.1572 28.7428 13.2079 27.2436 13.2079C24.1068 13.2094 20.9701 13.2079 17.8326 13.2079H17.5033C17.5033 13.0002 17.5095 12.8279 17.5018 12.6564C17.4826 12.2041 17.2664 11.9941 16.8149 11.9925C15.635 11.9902 14.455 11.9895 13.2751 11.9925C12.8413 11.9941 12.6244 12.2064 12.6036 12.6417C12.5951 12.821 12.6021 13.0002 12.6021 13.1909C12.5036 13.1979 12.4382 13.2063 12.3728 13.2063C9.14994 13.2063 5.92626 13.2094 2.70335 13.204C1.7334 13.2025 0.838834 12.5679 0.484237 11.6503C0.418856 11.4818 0.369627 11.3072 0.313477 11.1349V11.1372ZM11.3783 3.40223V4.58832H18.7217V3.40223H11.3783Z" fill="#612BC1"/>
</svg>
