<svg width="22" height="26" viewBox="0 0 22 26" fill="none" xmlns="http://www.w3.org/2000/svg">
<path d="M8.07855 25.5007C7.66391 25.4381 7.65231 25.1608 7.6536 24.812C7.66585 21.4898 7.66263 18.1675 7.65682 14.8453C7.65682 14.6312 7.71228 14.4713 7.8535 14.305C9.05161 12.8998 9.77577 11.2781 10.0111 9.44543C10.1098 8.67614 10.7566 8.28536 11.464 8.5936C12.5067 9.04756 13.0277 9.89037 13.1889 10.9763C13.3843 12.295 13.0999 13.564 12.7395 14.8208C12.6782 15.0349 12.6105 15.2471 12.5331 15.4992C12.6498 15.4992 12.7343 15.4992 12.8188 15.4992C14.4999 15.4992 16.181 15.4953 17.8621 15.5011C18.7584 15.5044 19.4097 16.0131 19.5857 16.8495C19.6844 17.3183 19.5896 17.7594 19.3117 18.1559C19.2614 18.2275 19.2085 18.2972 19.1601 18.3623C19.6386 19.1612 19.616 19.906 18.9834 20.6057C18.9506 20.6418 18.948 20.7379 18.9712 20.7875C19.3375 21.5633 19.2188 22.2507 18.6146 22.8601C18.5759 22.8987 18.5508 22.989 18.5675 23.0393C18.9886 24.2735 18.6082 25.0474 17.3604 25.4833C17.3539 25.4852 17.3501 25.4955 17.3456 25.502H8.07855V25.5007Z" fill="#612BC1"/>
<path d="M1.32132 25.5007C0.646818 25.2724 0.400488 24.7913 0.405002 24.0949C0.421768 21.522 0.424348 18.9491 0.405002 16.3762C0.398554 15.5708 0.966014 15.0465 1.69984 15.0665C2.96953 15.1013 4.24052 15.0684 5.51085 15.0839C5.72558 15.0865 5.95386 15.1587 6.14989 15.2522C6.40911 15.3767 6.53228 15.5901 6.53099 15.9112C6.51874 18.8059 6.5239 21.7006 6.5239 24.5953C6.5239 25.0525 6.38525 25.2563 5.95837 25.4304C5.90807 25.451 5.86035 25.4775 5.81135 25.5013L1.32132 25.5007ZM2.66066 17.7774C2.749 17.7774 2.83734 17.7839 2.92504 17.7761C3.19136 17.7536 3.40545 17.5646 3.44801 17.3228C3.51249 16.9559 3.28486 16.6651 2.90054 16.6244C2.26988 16.558 1.90297 16.765 1.89652 17.1906C1.89007 17.5769 2.15252 17.7787 2.66066 17.7774Z" fill="#612BC1"/>
<path d="M12.8201 8.31452C12.7633 8.29066 12.6337 8.24939 12.517 8.1849C12.0037 7.90117 11.4975 7.60455 10.981 7.32791C10.9023 7.28535 10.7618 7.286 10.6824 7.32791C10.1653 7.6039 9.65521 7.89279 9.14772 8.18619C8.90591 8.32612 8.66731 8.38029 8.42743 8.20554C8.18239 8.02692 8.14693 7.7851 8.2127 7.49686C8.33909 6.94165 8.44033 6.38064 8.55705 5.8235C8.58735 5.67776 8.56414 5.57265 8.44291 5.46561C8.00313 5.07677 7.57818 4.67117 7.14227 4.27781C6.92818 4.08501 6.84306 3.85738 6.94366 3.58655C7.04232 3.32281 7.2635 3.22801 7.53239 3.20158C8.12371 3.14289 8.71503 3.07841 9.30377 2.99974C9.38373 2.98878 9.48239 2.8985 9.51979 2.81983C9.77257 2.2917 10.0137 1.75778 10.2523 1.22256C10.3658 0.968492 10.5283 0.789871 10.8275 0.788581C11.1267 0.787292 11.2925 0.963978 11.406 1.21805C11.6458 1.75262 11.8844 2.28784 12.1404 2.81467C12.1823 2.90108 12.3049 2.98878 12.4003 3.00168C12.9968 3.08228 13.5971 3.14032 14.1955 3.20867C14.447 3.23769 14.6431 3.36085 14.7243 3.60525C14.8081 3.85609 14.7372 4.07727 14.5379 4.25911C14.1156 4.64344 13.7029 5.03937 13.2721 5.41338C13.1109 5.55331 13.0696 5.68421 13.1174 5.89121C13.2476 6.45351 13.3553 7.02161 13.4675 7.58843C13.5442 7.97598 13.2753 8.31516 12.8201 8.31452Z" fill="#612BC1"/>
<path d="M4.88594 9.72557C4.83435 9.70622 4.7099 9.67463 4.59963 9.61466C4.21853 9.40766 3.83808 9.19809 3.46729 8.97433C3.32994 8.89115 3.22935 8.89824 3.09586 8.97756C2.72379 9.20003 2.3414 9.40508 1.96481 9.62046C1.72687 9.75652 1.48892 9.77716 1.26452 9.60821C1.03947 9.43926 0.999487 9.20647 1.05946 8.93886C1.15296 8.52423 1.22776 8.10509 1.31868 7.68981C1.3535 7.53182 1.3161 7.42478 1.19036 7.3158C0.862136 7.03143 0.550678 6.72835 0.227612 6.43753C0.0199737 6.25052 -0.0528932 6.02418 0.039319 5.76431C0.130242 5.5096 0.340459 5.40385 0.600975 5.37676C1.04849 5.33034 1.49601 5.28584 1.9416 5.222C2.02285 5.2104 2.12215 5.12528 2.1602 5.04854C2.35559 4.65261 2.53808 4.25087 2.71605 3.84656C2.82632 3.59636 2.99204 3.43192 3.27706 3.4287C3.57434 3.42483 3.74522 3.59765 3.85871 3.8543C4.03475 4.25023 4.22498 4.64036 4.39522 5.03887C4.45519 5.17815 4.53644 5.22265 4.68346 5.23554C5.13163 5.27359 5.5785 5.32711 6.02409 5.38515C6.27235 5.41739 6.45613 5.54442 6.53931 5.79527C6.62443 6.05062 6.53544 6.25504 6.3536 6.42528C6.02538 6.73415 5.69393 7.03852 5.35732 7.33772C5.24963 7.43381 5.21223 7.52344 5.2477 7.67175C5.34507 8.08574 5.42503 8.5036 5.50692 8.92081C5.59785 9.3838 5.36764 9.72041 4.88465 9.72493L4.88594 9.72557Z" fill="#612BC1"/>
<path d="M16.1306 9.05347C16.2145 8.63432 16.3041 8.15327 16.4111 7.67609C16.444 7.53035 16.4157 7.4375 16.306 7.34013C15.981 7.05253 15.6644 6.75461 15.3439 6.46121C15.1473 6.2813 15.0286 6.07688 15.1195 5.79895C15.2124 5.51587 15.4252 5.40496 15.7031 5.37594C16.1506 5.32951 16.5981 5.28373 17.0431 5.22182C17.1185 5.21151 17.2114 5.13284 17.2462 5.06126C17.4435 4.65759 17.6286 4.24811 17.8111 3.83735C17.922 3.58715 18.0942 3.42788 18.3785 3.42917C18.6636 3.43046 18.8319 3.59296 18.9421 3.84315C19.1208 4.24682 19.3129 4.64469 19.4896 5.04901C19.5457 5.17668 19.6212 5.22247 19.7604 5.23472C20.2086 5.27341 20.6548 5.32822 21.1017 5.38239C21.3526 5.4127 21.5479 5.5378 21.626 5.78348C21.7021 6.02401 21.6434 6.24261 21.4506 6.41929C21.1178 6.72301 20.7948 7.03705 20.4536 7.3311C20.3292 7.43814 20.3092 7.5426 20.3402 7.68769C20.4291 8.10362 20.5052 8.52212 20.5987 8.93675C20.6593 9.20436 20.6213 9.43779 20.3969 9.60739C20.1635 9.78407 19.9197 9.75312 19.6753 9.61125C19.3142 9.40168 18.9428 9.20952 18.5881 8.98898C18.4263 8.88903 18.307 8.90128 18.1522 8.99414C17.7743 9.22177 17.39 9.44166 16.9999 9.64801C16.5723 9.87435 16.1132 9.58739 16.1306 9.05347Z" fill="#612BC1"/>
</svg>
