<svg width="67" height="67" viewBox="0 0 67 67" fill="none" xmlns="http://www.w3.org/2000/svg">
<path d="M54.0199 64.8512C54.3591 64.8512 54.6035 64.8512 54.8479 64.8512C58.4809 64.8512 62.1139 64.8512 65.7506 64.8512C66.4911 64.8512 66.9398 65.2743 66.9398 65.9236C66.9398 66.5729 66.4874 66.9778 65.747 66.996C65.612 66.996 65.4771 66.996 65.3421 66.996C44.1458 66.996 22.9495 66.996 1.75316 66.996C1.57443 66.996 1.39204 67.007 1.21331 66.9924C0.589569 66.945 0.173745 66.4926 0.191983 65.8871C0.206574 65.3145 0.615102 64.895 1.21331 64.8512C1.39204 64.8366 1.57078 64.8476 1.75316 64.8476C5.27311 64.8476 8.79671 64.8476 12.3167 64.8476H13.1119C13.1119 64.5266 13.1119 64.264 13.1119 64.0013C13.1119 50.7896 13.1119 37.5743 13.1119 24.3627C13.1119 23.148 13.4037 22.8525 14.6074 22.8525C27.2573 22.8525 39.9072 22.8525 52.5608 22.8525C53.7135 22.8525 54.0235 23.1662 54.0235 24.3298C54.0235 37.5415 54.0235 50.7568 54.0235 63.9685C54.0235 64.2348 54.0235 64.501 54.0235 64.8476L54.0199 64.8512ZM32.5099 53.022V64.7965H34.6766V53.0585H41.1219V64.8074H43.2594V64.2384C43.2594 60.2662 43.2594 56.2976 43.2594 52.3253C43.2594 51.2128 42.8874 50.848 41.7566 50.848C36.307 50.848 30.8575 50.848 25.4043 50.848C24.2298 50.848 23.876 51.2018 23.876 52.3654C23.876 56.3121 23.876 60.2625 23.876 64.2092C23.876 64.4026 23.8942 64.5995 23.9051 64.8038H26.0645V53.0183H32.5099V53.022ZM22.8182 29.3125C22.1215 29.3125 21.4284 29.2942 20.7317 29.3161C20.0241 29.3417 19.59 29.7538 19.5754 30.4542C19.5499 31.8439 19.5499 33.2373 19.5754 34.6271C19.5864 35.3274 20.0241 35.7542 20.7281 35.7688C22.0959 35.7906 23.4638 35.7906 24.8316 35.7688C25.5758 35.7578 26.0098 35.331 26.0244 34.5942C26.0463 33.2264 26.0463 31.8585 26.0244 30.4906C26.0135 29.7538 25.5794 29.338 24.8353 29.3161C24.1641 29.2942 23.4893 29.3125 22.8182 29.3161V29.3125ZM36.7995 32.5443C36.7995 31.8731 36.8141 31.1983 36.7958 30.5271C36.7739 29.7502 36.3508 29.3271 35.5702 29.3161C34.2243 29.3015 32.8783 29.2979 31.5323 29.3161C30.7882 29.3271 30.3541 29.7538 30.3432 30.487C30.3213 31.8549 30.3213 33.2227 30.3432 34.5906C30.3541 35.3274 30.7882 35.7542 31.5323 35.7651C32.8783 35.7833 34.2243 35.7833 35.5702 35.7651C36.3763 35.7542 36.7849 35.3201 36.7995 34.4884C36.8141 33.8392 36.7995 33.1862 36.7995 32.537V32.5443ZM41.1037 32.4786C41.1037 33.1498 41.0927 33.8246 41.1037 34.4957C41.1183 35.3274 41.5231 35.7615 42.3329 35.7724C43.6789 35.7906 45.0249 35.7906 46.3708 35.7724C47.1113 35.7615 47.549 35.3347 47.5599 34.5979C47.5818 33.23 47.5818 31.8622 47.5599 30.4943C47.549 29.7575 47.1113 29.3307 46.3672 29.3234C45.0212 29.3052 43.6752 29.3052 42.3293 29.3234C41.545 29.3344 41.1255 29.7575 41.1037 30.5344C41.0854 31.1837 41.1 31.8366 41.1 32.4859L41.1037 32.4786ZM19.5681 43.3266C19.5681 43.9759 19.5572 44.6288 19.5681 45.2781C19.5864 46.1061 19.9949 46.5329 20.8083 46.5438C22.1324 46.5584 23.4565 46.5584 24.7769 46.5438C25.5903 46.5329 26.0171 46.1061 26.0244 45.289C26.039 43.965 26.039 42.6409 26.0244 41.3204C26.0135 40.5362 25.594 40.1021 24.8207 40.0912C23.4747 40.0729 22.1288 40.0729 20.7828 40.0912C20.0058 40.1021 19.59 40.5289 19.5681 41.3095C19.5499 41.9806 19.5681 42.6555 19.5645 43.3266H19.5681ZM33.575 46.5475C34.2243 46.5475 34.8772 46.5584 35.5265 46.5475C36.3508 46.5292 36.7849 46.1207 36.7958 45.3109C36.8141 43.9868 36.8104 42.6628 36.7958 41.3423C36.7849 40.5252 36.3618 40.0985 35.5447 40.0912C34.2206 40.0766 32.8965 40.0766 31.5761 40.0912C30.7882 40.1021 30.3541 40.518 30.3432 41.2912C30.325 42.6372 30.325 43.9832 30.3432 45.3292C30.3541 46.1098 30.7809 46.5256 31.5578 46.5475C32.229 46.5657 32.9038 46.5511 33.575 46.5511V46.5475ZM41.1037 43.2573C41.1037 43.9285 41.0927 44.6033 41.1037 45.2744C41.1219 46.1025 41.5268 46.5329 42.3402 46.5402C43.6643 46.5584 44.9884 46.5548 46.3088 46.5402C47.1222 46.5292 47.549 46.1025 47.5599 45.2854C47.5745 43.9613 47.5745 42.6372 47.5599 41.3168C47.549 40.5325 47.1295 40.0948 46.3562 40.0839C45.0103 40.0656 43.6643 40.0656 42.3183 40.0839C41.5377 40.0948 41.1219 40.5216 41.1037 41.3022C41.0854 41.9515 41.1037 42.6044 41.1 43.2537L41.1037 43.2573Z" fill="#3DC4C1"/>
<path d="M19.5755 20.6495C19.5755 19.4713 19.5354 18.3296 19.5865 17.1952C19.6339 16.1557 20.5969 15.3313 21.6875 15.324C23.256 15.3094 24.8244 15.3203 26.3929 15.3203C32.6231 15.3203 38.8532 15.3203 45.0833 15.3203C46.7503 15.3203 47.5528 16.1228 47.5564 17.7861C47.5564 18.7236 47.5564 19.6647 47.5564 20.6495H19.5755Z" fill="#3DC4C1"/>
<path d="M9.72837 16.221C9.75026 17.2241 8.87484 17.7421 8.07236 17.3044C7.36472 16.9214 6.67533 16.5019 6.00052 16.0642C5.69412 15.8672 5.46796 15.8526 5.15791 16.0569C4.50498 16.4873 3.81924 16.8703 3.14808 17.2716C2.70307 17.5378 2.25076 17.5743 1.83128 17.2424C1.41545 16.9141 1.32061 16.4764 1.47746 15.973C1.56501 15.6958 1.5796 15.3857 1.70726 15.1341C2.38937 13.8063 2.07567 12.7303 0.944913 11.822C0.773475 11.6834 0.576503 11.512 0.510846 11.3186C0.383179 10.9393 0.167971 10.4505 0.30658 10.1587C0.463428 9.83407 0.94856 9.5532 1.33156 9.4839C1.93706 9.37082 2.5827 9.4839 3.20644 9.43283C3.418 9.41459 3.69522 9.23586 3.79735 9.04983C4.07822 8.54281 4.27884 7.99202 4.51593 7.46312C4.72385 6.99622 5.06672 6.60228 5.58468 6.73359C5.96404 6.82843 6.36528 7.13118 6.59143 7.45582C6.90512 7.90448 7.0948 8.45162 7.28813 8.97688C7.42673 9.36353 7.65653 9.4766 8.04317 9.45836C8.60126 9.43283 9.163 9.45107 9.72473 9.45472C10.2354 9.45472 10.7388 9.61886 10.8373 10.1295C10.9139 10.5125 10.7971 11.0122 10.5892 11.3478C10.2463 11.8913 9.78309 12.3655 9.31984 12.8215C8.98426 13.1498 8.94414 13.4671 9.07546 13.8939C9.33079 14.7036 9.53505 15.528 9.72837 16.221Z" fill="#77D6D4"/>
<path d="M22.4817 13.1609C22.3103 13.0806 21.9893 12.942 21.6829 12.7706C20.9607 12.373 20.2494 11.6507 19.5272 11.6471C18.8341 11.6398 18.1593 12.4167 17.4371 12.7633C17.0249 12.9602 16.5106 13.1134 16.0765 13.0551C15.544 12.9821 15.2996 12.3474 15.4491 11.7565C15.6461 10.9759 15.9014 10.2099 16.0656 9.4257C16.1166 9.17402 16.0255 8.82385 15.8686 8.61593C15.4674 8.07973 14.9968 7.5946 14.5482 7.09123C14.2089 6.70823 14.0557 6.2851 14.2782 5.79632C14.5007 5.30754 14.9312 5.15069 15.4345 5.15069C15.9963 5.15069 16.558 5.12516 17.1161 5.15799C17.5173 5.17988 17.7179 5.02303 17.8565 4.65462C18.0535 4.13301 18.2979 3.62964 18.5314 3.11897C18.732 2.67761 19.053 2.40039 19.5636 2.40039C20.0779 2.40039 20.388 2.68126 20.5996 3.11897C20.9133 3.77919 21.0737 4.68015 21.5954 5.03032C22.0951 5.3659 22.9778 5.1361 23.6927 5.14705C24.1998 5.15434 24.6229 5.31119 24.8454 5.79997C25.0679 6.2924 24.8965 6.70458 24.5718 7.09487C24.021 7.75874 23.1821 8.37519 23.0289 9.1266C22.8757 9.88895 23.4082 10.7899 23.6307 11.6325C23.8569 12.4897 23.4301 13.1499 22.4708 13.1609H22.4817Z" fill="#77D6D4"/>
<path d="M47.5609 2.17455C47.9694 2.53201 48.3524 2.74357 48.5458 3.06821C48.9324 3.71384 49.0528 4.66587 49.5926 5.02698C50.1106 5.37351 51.0298 5.06346 51.752 5.17654C52.1387 5.23855 52.653 5.50117 52.7989 5.81852C52.9411 6.13221 52.7989 6.69394 52.5873 7.02223C52.2153 7.59855 51.6681 8.0618 51.2523 8.61624C51.0955 8.82415 51.0079 9.17432 51.059 9.42601C51.2122 10.192 51.442 10.9398 51.6572 11.6948C51.8031 12.2055 51.7265 12.7125 51.2632 12.9277C50.9131 13.0919 50.3769 13.1101 50.0267 12.9569C49.2935 12.6359 48.6443 12.1289 47.933 11.7568C47.7287 11.6511 47.3785 11.6547 47.1706 11.7605C46.514 12.0961 45.8903 12.4973 45.2629 12.8876C44.7887 13.1831 44.3072 13.3144 43.8294 12.9496C43.3589 12.5921 43.3187 12.1107 43.4902 11.5599C43.7127 10.8559 43.9133 10.1446 44.0519 9.42236C44.0993 9.17068 44.0118 8.82051 43.8549 8.61259C43.4537 8.07639 42.9831 7.59126 42.5345 7.08789C42.1953 6.70489 42.0421 6.28176 42.2646 5.79298C42.4871 5.30055 42.9138 5.14735 43.4209 5.14371C43.9826 5.14371 44.5443 5.11817 45.1024 5.151C45.5036 5.17289 45.7043 5.01604 45.8429 4.64763C46.0508 4.10414 46.2587 3.5497 46.5651 3.06456C46.7657 2.74357 47.1414 2.53201 47.55 2.1709L47.5609 2.17455Z" fill="#77D6D4"/>
<path d="M61.5474 6.48145C61.9559 6.83526 62.3244 7.05047 62.5396 7.36782C62.8131 7.76905 63.0101 8.2396 63.1487 8.70649C63.3384 9.33388 63.7141 9.53085 64.3342 9.46155C64.7756 9.41413 65.2315 9.45425 65.6765 9.45425C66.1835 9.45425 66.6103 9.60745 66.8365 10.0962C67.0663 10.585 66.9094 11.0081 66.5738 11.3911C66.158 11.8617 65.7787 12.3687 65.3227 12.7955C64.9543 13.142 64.9324 13.4849 65.071 13.9262C65.2789 14.5865 65.4248 15.2649 65.6327 15.9251C65.8005 16.4577 65.7239 16.9136 65.2789 17.2492C64.8303 17.5921 64.367 17.5118 63.9074 17.2237C63.2618 16.8188 62.6162 16.4139 61.9414 16.0674C61.7371 15.9616 61.3833 15.958 61.179 16.0601C60.4859 16.4176 59.8221 16.8443 59.1546 17.2529C58.7132 17.5228 58.2646 17.5775 57.8378 17.2602C57.3891 16.9246 57.3089 16.4723 57.4694 15.9397C57.6919 15.192 57.9034 14.4369 58.0676 13.6709C58.115 13.4557 58.0457 13.1493 57.9107 12.9742C57.4694 12.4088 56.9149 11.9273 56.5283 11.3328C56.3131 11.0081 56.1708 10.4428 56.3131 10.1291C56.4553 9.81172 56.9697 9.54544 57.3563 9.48343C58.1004 9.36306 59.0269 9.65852 59.5813 9.30835C60.1029 8.97642 60.1978 8.01709 60.5698 7.38241C60.7595 7.05777 61.1425 6.84256 61.5511 6.48145H61.5474Z" fill="#77D6D4"/>
<path d="M33.5601 0C33.9869 0.386647 34.3553 0.605505 34.5596 0.930143C34.8623 1.41892 35.0775 1.96971 35.2781 2.51686C35.4204 2.89986 35.6429 3.02023 36.0332 3.00199C36.5475 2.97281 37.0655 3.00199 37.5798 2.99469C38.1306 2.98375 38.6157 3.11142 38.8601 3.66221C39.1045 4.22029 38.8455 4.65071 38.4807 5.0556C38.0722 5.50425 37.7038 5.98574 37.2734 6.40886C36.9743 6.70432 36.9414 6.98519 37.0618 7.36454C37.2807 8.06853 37.4448 8.79076 37.6564 9.49475C37.8096 9.99812 37.733 10.4358 37.3244 10.7678C36.8867 11.1252 36.4198 11.0705 35.9529 10.786C35.3219 10.3994 34.669 10.0528 34.0562 9.64065C33.7133 9.41085 33.4507 9.39262 33.0969 9.62971C32.4658 10.0528 31.7983 10.4212 31.1454 10.8115C30.7004 11.0778 30.2481 11.1143 29.8286 10.786C29.4128 10.4614 29.3143 10.0237 29.4711 9.52028C29.5587 9.24306 29.5733 8.93302 29.7009 8.68133C30.3794 7.3536 30.0766 6.27755 28.9422 5.36929C28.7708 5.23068 28.5738 5.05925 28.5082 4.86227C28.3805 4.48292 28.1616 3.99414 28.3002 3.70233C28.4534 3.37769 28.9422 3.09683 29.3252 3.02387C29.9088 2.9108 30.5289 2.97281 31.1344 2.99834C31.4992 3.01293 31.7071 2.89621 31.8384 2.54239C32.0427 1.99889 32.2506 1.44446 32.557 0.955676C32.7686 0.616447 33.1479 0.383 33.5638 0L33.5601 0Z" fill="#77D6D4"/>
<path d="M21.7559 31.498H23.8241V33.5772H21.7559V31.498Z" fill="#3DC4C1"/>
<path d="M34.6056 33.5872H32.541V31.5117H34.6056V33.5872Z" fill="#3DC4C1"/>
<path d="M43.2988 31.4824H45.3488V33.5689H43.2988V31.4824Z" fill="#3DC4C1"/>
<path d="M21.7598 42.2686H23.8207V44.3404H21.7598V42.2686Z" fill="#3DC4C1"/>
<path d="M34.6019 44.3551H32.541V42.2832H34.6019V44.3551Z" fill="#3DC4C1"/>
<path d="M43.3145 42.2539H45.3571V44.344H43.3145V42.2539Z" fill="#3DC4C1"/>
</svg>
